#!OML:ASF H:\GeneralSubjects\Female5\Project 1\Capture day 1\Session 1\Female5.ASF
:FULLY-SPECIFIED
:DEGREES
382
root -13.2455 15.8324 1.79042 182.242 -24.7085 -171.346
lowerback 7.2936 0.975904 4.8951
upperback -9.00117 1.85061 4.14857
thorax -14.005 0.379724 1.56829
lowerneck -14.4534 -1.36937 -5.67035
upperneck 45.1026 -11.5016 8.30985
head 22.1515 -6.46423 2.10025
rclavicle 3.44891e-014 5.60573e-014
rhumerus -39.3795 19.8438 -76.6229
rradius 27.5017
rwrist -10.1678
rhand -20.2059 -25.7761
rfingers 7.12502
rthumb 6.14101 -55.6671
lclavicle 3.44891e-014 5.60573e-014
lhumerus -45.1026 -0.36313 86.5005
lradius 23.7919
lwrist -11.1046
lhand -21.0926 34.7898
lfingers 7.12502
lthumb 5.28495 64.7039
rfemur -9.62539 21.5784 33.2182
rtibia 8.36762
rfoot -9.42428 -2.01137
rtoes -8.43092
lfemur -4.1186 -17.2051 -8.45944
ltibia 24.2223
lfoot -16.597 -0.994362
ltoes -68.5968
383
root -13.3454 15.8398 1.88113 182.395 -23.4789 -171.445
lowerback 7.37252 0.899405 4.76948
upperback -9.04217 1.72823 4.16677
thorax -14.1086 0.3301 1.68537
lowerneck -14.3941 -1.34115 -5.81536
upperneck 44.9415 -11.5557 8.51894
head 22.0504 -6.51578 2.21519
rclavicle -3.01159e-014 6.36111e-014
rhumerus -39.8769 18.5843 -75.6583
rradius 27.3829
rwrist -10.576
rhand -20.2931 -25.2153
rfingers 7.12502
rthumb 6.05685 -55.1087
lclavicle -3.01159e-014 6.36111e-014
lhumerus -45.2277 0.459414 85.5613
lradius 23.4141
lwrist -11.5655
lhand -21.1705 34.8569
lfingers 7.12502
lthumb 5.20971 64.7729
rfemur -9.80698 22.1588 32.6871
rtibia 8.09795
rfoot -9.08727 -1.99156
rtoes -10.6597
lfemur -1.86567 -17.0891 -9.58163
ltibia 20.9887
lfoot -18.0421 0.927504
ltoes -66.4739
384
root -13.4497 15.8466 1.97542 182.749 -22.2367 -171.814
lowerback 7.31472 0.856233 4.39206
upperback -9.05705 1.60523 4.12817
thorax -14.0957 0.307566 1.87701
lowerneck -14.802 -1.42637 -5.74289
upperneck 45.0717 -11.8107 8.37273
head 22.3331 -6.63338 2.03601
rclavicle -2.95195e-014 -2.38542e-014
rhumerus -40.1889 17.2171 -74.5418
rradius 26.9883
rwrist -10.8396
rhand -20.3267 -24.5413
rfingers 7.12502
rthumb 6.02443 -54.4357
lclavicle -2.95195e-014 -2.38542e-014
lhumerus -45.2209 0.957341 84.9074
lradius 22.9164
lwrist -12.6369
lhand -21.8214 34.971
lfingers 7.12502
lthumb 4.58119 64.9015
rfemur -10.2009 22.8907 31.7709
rtibia 7.97637
rfoot -8.63481 -1.67317
rtoes -10.4557
lfemur 0.335228 -17.2557 -11.0844
ltibia 17.5693
lfoot -19.4837 3.19793
ltoes -67.6109
385
root -13.5551 15.8519 2.07208 183.26 -21.1961 -172.344
lowerback 7.16844 0.800171 3.88949
upperback -9.12755 1.43611 4.02509
thorax -14.0916 0.271306 2.07725
lowerneck -14.8535 -1.44954 -5.78029
upperneck 44.871 -11.8837 8.49787
head 22.2163 -6.66097 2.08127
rclavicle -4.72114e-014 -3.69739e-014
rhumerus -40.656 15.7687 -73.3632
rradius 26.6713
rwrist -10.955
rhand -20.1796 -24.3495
rfingers 7.12502
rthumb 6.16647 -54.2398
lclavicle -4.72114e-014 -3.69739e-014
lhumerus -45.2003 1.23151 84.3749
lradius 22.546
lwrist -13.7292
lhand -22.4891 35.1631
lfingers 7.12502
lthumb 3.93648 65.1065
rfemur -10.6542 23.6363 30.5682
rtibia 7.63756
rfoot -8.02837 -1.52727
rtoes -10.1024
lfemur 2.24671 -17.7865 -12.8052
ltibia 14.2785
lfoot -20.6127 5.35919
ltoes -65.8576
386
root -13.6567 15.857 2.17083 183.729 -20.2757 -172.695
lowerback 6.99169 0.744506 3.52187
upperback -9.20898 1.28279 3.95007
thorax -14.0785 0.227848 2.23099
lowerneck -14.9177 -1.50377 -5.97514
upperneck 44.6907 -12.1294 8.85798
head 22.2189 -6.76724 2.23817
rclavicle -2.31584e-014 -1.39149e-014
rhumerus -41.0976 13.9066 -71.9307
rradius 26.2377
rwrist -10.1612
rhand -20.2179 -24.4873
rfingers 7.12502
rthumb 6.12943 -54.3787
lclavicle -2.31584e-014 -1.39149e-014
lhumerus -45.0122 1.36418 83.8419
lradius 22.3954
lwrist -14.0275
lhand -22.6194 35.024
lfingers 7.12502
lthumb 3.81062 64.9696
rfemur -11.0781 24.134 29.4938
rtibia 7.0277
rfoot -7.39372 -1.60598
rtoes -12.02
lfemur 4.01589 -18.8559 -14.4108
ltibia 11.1105
lfoot -21.6497 7.70881
ltoes -65.2361
387
root -13.7597 15.8627 2.27489 184.178 -19.3138 -173.046
lowerback 6.84661 0.715473 3.17186
upperback -9.2576 1.17338 3.86621
thorax -14.0454 0.204675 2.35496
lowerneck -14.8652 -1.53086 -6.0604
upperneck 44.466 -12.2586 9.08767
head 22.081 -6.81951 2.33674
rclavicle 4.86029e-014 -4.33351e-014
rhumerus -41.4763 12.0833 -70.539
rradius 25.5983
rwrist -9.13753
rhand -20.7402 -24.5529
rfingers 7.12502
rthumb 5.62516 -54.4583
lclavicle 4.86029e-014 -4.33351e-014
lhumerus -44.6331 1.38016 83.4549
lradius 22.4555
lwrist -13.7675
lhand -21.5919 35.4388
lfingers 7.12502
lthumb 4.80284 65.3644
rfemur -11.6179 24.5735 28.3703
rtibia 6.55001
rfoot -6.8799 -1.62493
rtoes -14.4218
lfemur 5.78869 -20.5399 -16.2466
ltibia 8.13397
lfoot -22.7767 10.4701
ltoes -65.5868
388
root -13.8624 15.8676 2.38452 184.62 -18.4165 -173.468
lowerback 6.78051 0.666131 2.81417
upperback -9.29752 1.04151 3.73743
thorax -14.0497 0.171221 2.43731
lowerneck -14.7779 -1.54267 -6.05944
upperneck 44.2413 -12.3038 9.18771
head 21.8819 -6.83446 2.37149
rclavicle -4.39314e-014 3.18055e-014
rhumerus -42.2157 11.2101 -69.9303
rradius 25.4426
rwrist -9.98141
rhand -21.5548 -25.2277
rfingers 7.12502
rthumb 4.83869 -55.1525
lclavicle -4.39314e-014 3.18055e-014
lhumerus -44.1912 1.29014 83.2209
lradius 22.6446
lwrist -13.3201
lhand -17.9879 36.939
lfingers 7.12502
lthumb 8.28203 66.7567
rfemur -12.2811 25.0249 27.125
rtibia 6.23806
rfoot -6.47951 -1.7349
rtoes -16.952
lfemur 7.45419 -22.7505 -18.3551
ltibia 5.52775
lfoot -23.918 13.4522
ltoes -66.3082
389
root -13.9621 15.8698 2.4979 185.025 -17.6077 -173.711
lowerback 6.72985 0.593409 2.59102
upperback -9.34326 0.897738 3.67386
thorax -14.07 0.119766 2.52031
lowerneck -14.8258 -1.56625 -6.08117
upperneck 44.1028 -12.4006 9.28319
head 21.8208 -6.87393 2.39189
rclavicle 3.07122e-014 1.90833e-014
rhumerus -43.0645 10.5843 -69.4731
rradius 25.3971
rwrist -10.8993
rhand -22.2789 -26.1846
rfingers 7.12502
rthumb 4.13949 -56.1241
lclavicle 3.07122e-014 1.90833e-014
lhumerus -43.7857 1.09893 83.1099
lradius 22.995
lwrist -13.0342
lhand -14.2721 35.7062
lfingers 7.12502
lthumb 11.8667 65.3499
rfemur -13.0384 25.3064 26.0539
rtibia 6.0102
rfoot -6.01829 -1.65967
rtoes -18.7223
lfemur 8.94775 -25.2174 -20.3099
ltibia 3.27146
lfoot -25.1543 16.475
ltoes -65.9172
390
root -14.0632 15.8719 2.61645 185.39 -16.8625 -173.886
lowerback 6.73463 0.534956 2.43145
upperback -9.36417 0.789599 3.64235
thorax -14.0964 0.0815779 2.59634
lowerneck -14.7145 -1.63134 -5.75301
upperneck 44.129 -12.4966 8.96858
head 21.4516 -6.8801 2.11455
rclavicle -7.33515e-014 3.61788e-014
rhumerus -43.7643 9.70454 -68.7387
rradius 25.113
rwrist -10.7344
rhand -22.5105 -27.022
rfingers 7.12502
rthumb 3.91576 -56.9658
lclavicle -7.33515e-014 3.61788e-014
lhumerus -43.2465 0.798882 83.1299
lradius 23.3973
lwrist -13.0422
lhand -15.718 28.3179
lfingers 7.12502
lthumb 10.4722 58.0371
rfemur -13.8553 25.6504 25.0167
rtibia 5.94413
rfoot -5.62588 -1.49605
rtoes -19.3134
lfemur 10.1954 -27.4713 -22.1046
ltibia 1.45191
lfoot -26.188 19.2186
ltoes -63.9259
391
root -14.1639 15.8746 2.74065 185.722 -16.1076 -174.17
lowerback 6.81941 0.511477 2.15926
upperback -9.33621 0.725702 3.59643
thorax -14.1173 0.0798856 2.70945
lowerneck -15.0537 -1.79211 -5.28969
upperneck 44.2432 -12.533 8.14913
head 21.4752 -6.8842 1.5832
rclavicle 7.65321e-015 1.15295e-014
rhumerus -44.3232 8.83372 -68.0322
rradius 24.6758
rwrist -10.3866
rhand -22.4333 -27.3854
rfingers 7.12502
rthumb 3.99031 -57.3278
lclavicle 7.65321e-015 1.15295e-014
lhumerus -42.5359 0.154277 83.4474
lradius 23.7889
lwrist -12.4534
lhand -24.2147 35.1197
lfingers 7.12502
lthumb 2.27005 65.0874
rfemur -14.7478 25.985 23.8339
rtibia 5.97348
rfoot -5.26194 -1.40909
rtoes -20.2277
lfemur 11.303 -29.5539 -23.964
ltibia -0.0482394
lfoot -27.5235 21.3421
ltoes -64.166
392
root -14.2609 15.8734 2.86701 186.095 -15.3059 -174.442
lowerback 6.86379 0.513543 1.86457
upperback -9.32273 0.689049 3.5545
thorax -14.131 0.0922899 2.835
lowerneck -14.5915 -1.69996 -5.89074
upperneck 43.792 -12.566 9.03338
head 21.1896 -6.93468 2.15138
rclavicle 2.22639e-014 -3.57812e-015
rhumerus -44.6368 7.91009 -67.4369
rradius 23.8412
rwrist -9.79616
rhand -22.3657 -27.2597
rfingers 7.12502
rthumb 4.05565 -57.2008
lclavicle 2.22639e-014 -3.57812e-015
lhumerus -41.882 -0.556503 83.8125
lradius 24.3796
lwrist -11.3998
lhand -24.6482 35.5629
lfingers 7.12502
lthumb 1.85129 65.5346
rfemur -15.8383 26.0514 22.6818
rtibia 6.08144
rfoot -4.75696 -1.18603
rtoes -22.204
lfemur 12.3789 -31.8509 -25.8272
ltibia -1.42429
lfoot -29.7835 22.8745
ltoes -62.2637
393
root -14.3573 15.8703 2.99146 186.504 -14.4765 -174.708
lowerback 6.81616 0.52587 1.58054
upperback -9.28357 0.661894 3.46827
thorax -14.0543 0.105887 2.90025
lowerneck -14.3776 -1.65288 -6.07287
upperneck 43.5604 -12.6042 9.37871
head 21.0275 -6.96315 2.35348
rclavicle 2.59911e-014 -6.36111e-015
rhumerus -44.6887 7.0797 -67.1916
rradius 22.7285
rwrist -9.10596
rhand -22.3957 -27.5034
rfingers 7.12502
rthumb 4.02669 -57.4451
lclavicle 2.59911e-014 -6.36111e-015
lhumerus -41.1718 -1.0733 83.95
lradius 25.0889
lwrist -10.8469
lhand -25.5648 36.125
lfingers 7.12502
lthumb 0.966066 66.1026
rfemur -17.0598 26.0586 21.538
rtibia 6.32048
rfoot -4.23102 -0.868767
rtoes -23.7716
lfemur 13.3826 -34.1776 -27.6705
ltibia -2.57813
lfoot -32.092 24.4216
ltoes -60.2515
394
root -14.4526 15.8682 3.11649 186.862 -13.6089 -175.134
lowerback 6.8172 0.56355 1.11561
upperback -9.15328 0.656401 3.3011
thorax -13.9016 0.150649 2.96831
lowerneck -14.5104 -1.67902 -5.91526
upperneck 43.5944 -12.7266 9.2653
head 21.0825 -7.00126 2.22851
rclavicle -1.1281e-014 -2.50469e-014
rhumerus -45.1546 7.10405 -67.6432
rradius 22.211
rwrist -9.15045
rhand -22.3834 -27.8709
rfingers 7.12502
rthumb 4.0385 -57.8124
lclavicle -1.1281e-014 -2.50469e-014
lhumerus -40.2277 -1.69704 84.0727
lradius 25.7648
lwrist -10.2918
lhand -25.2088 36.1184
lfingers 7.12502
lthumb 1.30989 66.0941
rfemur -18.272 26.2054 20.2056
rtibia 6.67145
rfoot -3.78134 -0.612171
rtoes -24.5239
lfemur 14.3732 -36.2927 -29.6463
ltibia -3.57864
lfoot -33.786 26.3948
ltoes -58.797
395
root -14.545 15.8663 3.24495 187.196 -12.7205 -175.726
lowerback 6.95414 0.602354 0.573617
upperback -9.02817 0.642662 3.02395
thorax -13.8404 0.195822 2.96143
lowerneck -14.7589 -1.76605 -5.57888
upperneck 43.8265 -12.9409 8.81628
head 21.265 -7.08529 1.8702
rclavicle -6.55989e-015 -3.85642e-014
rhumerus -45.6349 7.37265 -68.5162
rradius 21.7314
rwrist -9.19924
rhand -22.1207 -28.0616
rfingers 7.12502
rthumb 4.29224 -57.9981
lclavicle -6.55989e-015 -3.85642e-014
lhumerus -39.3381 -2.53687 84.1973
lradius 26.5412
lwrist -9.31783
lhand -24.9561 36.1959
lfingers 7.12502
lthumb 1.55394 66.1699
rfemur -19.5544 26.5141 18.6752
rtibia 7.20754
rfoot -3.53851 -0.58384
rtoes -24.9615
lfemur 15.5206 -38.6351 -31.9496
ltibia -4.50966
lfoot -36.0669 28.179
ltoes -56.5221
396
root -14.6392 15.8599 3.37952 187.616 -11.8331 -176.324
lowerback 7.13022 0.60255 0.180365
upperback -8.96563 0.581239 2.67813
thorax -13.8726 0.196067 2.80762
lowerneck -14.561 -1.5884 -5.47199
upperneck 43.8472 -12.9089 8.96321
head 21.228 -7.08096 1.93105
rclavicle -2.0276e-014 4.6118e-014
rhumerus -46.1932 7.93194 -69.8178
rradius 21.4555
rwrist -9.32385
rhand -21.7505 -28.6518
rfingers 7.12502
rthumb 4.64968 -58.5808
lclavicle -2.0276e-014 4.6118e-014
lhumerus -38.6391 -3.48519 84.3016
lradius 27.4343
lwrist -7.73047
lhand -26.9198 36.3002
lfingers 7.12502
lthumb -0.342657 66.2796
rfemur -21.0814 26.5808 17.089
rtibia 7.91349
rfoot -3.22743 -0.356181
rtoes -24.2341
lfemur 16.449 -40.9838 -34.1804
ltibia -5.23472
lfoot -38.6762 29.7402
ltoes -54.7369
